<mxfile host="app.diagrams.net" modified="2023-12-12T14:00:15.620Z" agent="Mozilla/5.0 (Windows NT 10.0; Win64; x64) AppleWebKit/537.36 (KHTML, like Gecko) Chrome/120.0.0.0 Safari/537.36" etag="h9GJSIyBr81QGw_fHbtz" version="22.1.7" type="github">
  <diagram id="R2lEEEUBdFMjLlhIrx00" name="Page-1">
    <mxGraphModel dx="1218" dy="1629" grid="1" gridSize="10" guides="1" tooltips="1" connect="1" arrows="1" fold="1" page="1" pageScale="1" pageWidth="850" pageHeight="1100" math="0" shadow="0" extFonts="Permanent Marker^https://fonts.googleapis.com/css?family=Permanent+Marker">
      <root>
        <mxCell id="0" />
        <mxCell id="1" parent="0" />
        <mxCell id="vZ9pLE5V6vLG-cN3C78c-1" value="&lt;b&gt;E-Commerce Application Database Design&lt;/b&gt;" style="rounded=1;whiteSpace=wrap;html=1;" vertex="1" parent="1">
          <mxGeometry x="40" y="10" width="140" height="60" as="geometry" />
        </mxCell>
        <mxCell id="vZ9pLE5V6vLG-cN3C78c-2" value="&lt;ol data-sourcepos=&quot;5:1-7:30&quot; style=&quot;margin: 4px 0px; padding-inline-start: 36px; color: rgb(31, 31, 31); font-family: &amp;quot;Google Sans&amp;quot;, &amp;quot;Helvetica Neue&amp;quot;, sans-serif; font-size: 16px; font-style: normal; font-variant-ligatures: normal; font-variant-caps: normal; font-weight: 400; letter-spacing: normal; orphans: 2; text-align: start; text-indent: 0px; text-transform: none; widows: 2; word-spacing: 0px; -webkit-text-stroke-width: 0px; background-color: rgb(255, 255, 255); text-decoration-thickness: initial; text-decoration-style: initial; text-decoration-color: initial;&quot;&gt;&lt;li data-sourcepos=&quot;5:1-7:30&quot; style=&quot;margin-bottom: 10px;&quot;&gt;&lt;p data-sourcepos=&quot;5:4-5:12&quot; style=&quot;margin: 24px 0px; word-break: break-word;&quot;&gt;&lt;strong style=&quot;font-weight: 500;&quot;&gt;User:&lt;/strong&gt;&lt;/p&gt;&lt;span&gt;&lt;/span&gt;&lt;ul data-sourcepos=&quot;6:5-17:0&quot; style=&quot;margin: 4px 0px; padding-inline-start: 36px;&quot;&gt;&lt;span&gt;&lt;/span&gt;&lt;li data-sourcepos=&quot;6:5-17:0&quot; style=&quot;margin-bottom: 10px;&quot;&gt;&lt;strong style=&quot;font-weight: 500;&quot;&gt;Attributes:&lt;/strong&gt;&lt;span&gt;&lt;/span&gt;&lt;ul data-sourcepos=&quot;7:9-17:0&quot; style=&quot;margin: 4px 0px; padding-inline-start: 36px;&quot;&gt;&lt;span&gt;&lt;/span&gt;&lt;li data-sourcepos=&quot;7:9-7:30&quot; style=&quot;margin-bottom: 10px;&quot;&gt;&lt;span&gt;UserID (primary key)&lt;/span&gt;&lt;/li&gt;&lt;span&gt;&lt;/span&gt;&lt;li data-sourcepos=&quot;8:9-8:18&quot; style=&quot;margin-bottom: 10px;&quot;&gt;&lt;span&gt;Username&lt;/span&gt;&lt;/li&gt;&lt;span&gt;&lt;/span&gt;&lt;li data-sourcepos=&quot;9:9-9:15&quot; style=&quot;margin-bottom: 10px;&quot;&gt;&lt;span&gt;Email&lt;/span&gt;&lt;/li&gt;&lt;span&gt;&lt;/span&gt;&lt;li data-sourcepos=&quot;10:9-10:18&quot; style=&quot;margin-bottom: 10px;&quot;&gt;&lt;span&gt;Password&lt;/span&gt;&lt;/li&gt;&lt;span&gt;&lt;/span&gt;&lt;li data-sourcepos=&quot;11:9-11:38&quot; style=&quot;margin-bottom: 10px;&quot;&gt;&lt;span&gt;UserType (Merchant/Customer)&lt;/span&gt;&lt;/li&gt;&lt;span&gt;&lt;/span&gt;&lt;li data-sourcepos=&quot;12:9-12:14&quot; style=&quot;margin-bottom: 10px;&quot;&gt;&lt;span&gt;Name&lt;/span&gt;&lt;/li&gt;&lt;span&gt;&lt;/span&gt;&lt;li data-sourcepos=&quot;13:9-13:17&quot; style=&quot;margin-bottom: 10px;&quot;&gt;&lt;span&gt;Address&lt;/span&gt;&lt;/li&gt;&lt;span&gt;&lt;/span&gt;&lt;li data-sourcepos=&quot;14:9-14:21&quot; style=&quot;margin-bottom: 10px;&quot;&gt;&lt;span&gt;PhoneNumber&lt;/span&gt;&lt;/li&gt;&lt;span&gt;&lt;/span&gt;&lt;li data-sourcepos=&quot;15:9-15:19&quot; style=&quot;margin-bottom: 10px;&quot;&gt;&lt;span&gt;CreatedAt&lt;/span&gt;&lt;/li&gt;&lt;span&gt;&lt;/span&gt;&lt;li data-sourcepos=&quot;16:9-17:0&quot; style=&quot;margin-bottom: 10px;&quot;&gt;&lt;span&gt;UpdatedAt&lt;/span&gt;&lt;/li&gt;&lt;span&gt;&lt;/span&gt;&lt;/ul&gt;&lt;span&gt;&lt;/span&gt;&lt;/li&gt;&lt;span&gt;&lt;/span&gt;&lt;/ul&gt;&lt;span&gt;&lt;/span&gt;&lt;/li&gt;&lt;span&gt;&lt;/span&gt;&lt;li data-sourcepos=&quot;18:1-20:28&quot; style=&quot;margin-bottom: 10px;&quot;&gt;&lt;span&gt;&lt;/span&gt;&lt;p data-sourcepos=&quot;18:4-18:15&quot; style=&quot;margin: 24px 0px; word-break: break-word;&quot;&gt;&lt;strong style=&quot;font-weight: 500;&quot;&gt;Product:&lt;/strong&gt;&lt;/p&gt;&lt;span&gt;&lt;/span&gt;&lt;ul data-sourcepos=&quot;19:5-20:28&quot; style=&quot;margin: 4px 0px; padding-inline-start: 36px;&quot;&gt;&lt;span&gt;&lt;/span&gt;&lt;li data-sourcepos=&quot;19:5-20:28&quot; style=&quot;margin-bottom: 10px;&quot;&gt;&lt;strong style=&quot;font-weight: 500;&quot;&gt;Attributes:&lt;/strong&gt;&lt;span&gt;&lt;/span&gt;&lt;ul data-sourcepos=&quot;20:9-20:28&quot; style=&quot;margin: 4px 0px; padding-inline-start: 36px;&quot;&gt;&lt;span&gt;&lt;/span&gt;&lt;li data-sourcepos=&quot;20:9-20:28&quot; style=&quot;margin-bottom: 10px;&quot;&gt;&lt;span&gt;ProductID (primary key)&lt;/span&gt;&lt;/li&gt;&lt;span&gt;&lt;/span&gt;&lt;li data-sourcepos=&quot;21:9-21:21&quot; style=&quot;margin-bottom: 10px;&quot;&gt;&lt;span&gt;ProductName&lt;/span&gt;&lt;/li&gt;&lt;span&gt;&lt;/span&gt;&lt;li data-sourcepos=&quot;22:9-22:21&quot; style=&quot;margin-bottom: 10px;&quot;&gt;&lt;span&gt;Description&lt;/span&gt;&lt;/li&gt;&lt;span&gt;&lt;/span&gt;&lt;li data-sourcepos=&quot;23:9-23:15&quot; style=&quot;margin-bottom: 10px;&quot;&gt;&lt;span&gt;Price&lt;/span&gt;&lt;/li&gt;&lt;span&gt;&lt;/span&gt;&lt;li data-sourcepos=&quot;24:9-24:18&quot; style=&quot;margin-bottom: 10px;&quot;&gt;&lt;span&gt;ImageURL&lt;/span&gt;&lt;/li&gt;&lt;span&gt;&lt;/span&gt;&lt;li data-sourcepos=&quot;25:9-25:18&quot; style=&quot;margin-bottom: 10px;&quot;&gt;&lt;span&gt;Quantity&lt;/span&gt;&lt;/li&gt;&lt;span&gt;&lt;/span&gt;&lt;li data-sourcepos=&quot;26:9-26:33&quot; style=&quot;margin-bottom: 10px;&quot;&gt;&lt;span&gt;CategoryID (foreign key)&lt;/span&gt;&lt;/li&gt;&lt;span&gt;&lt;/span&gt;&lt;li data-sourcepos=&quot;27:9-27:34&quot; style=&quot;margin-bottom: 10px;&quot;&gt;&lt;span&gt;MerchantID (foreign key)&lt;/span&gt;&lt;/li&gt;&lt;span&gt;&lt;/span&gt;&lt;li data-sourcepos=&quot;28:9-28:19&quot; style=&quot;margin-bottom: 10px;&quot;&gt;&lt;span&gt;CreatedAt&lt;/span&gt;&lt;/li&gt;&lt;span&gt;&lt;/span&gt;&lt;li data-sourcepos=&quot;29:9-30:0&quot; style=&quot;margin-bottom: 10px;&quot;&gt;&lt;span&gt;UpdatedAt&lt;/span&gt;&lt;/li&gt;&lt;span&gt;&lt;/span&gt;&lt;/ul&gt;&lt;span&gt;&lt;/span&gt;&lt;/li&gt;&lt;span&gt;&lt;/span&gt;&lt;/ul&gt;&lt;span&gt;&lt;/span&gt;&lt;/li&gt;&lt;span&gt;&lt;/span&gt;&lt;li data-sourcepos=&quot;31:1-37:0&quot; style=&quot;margin-bottom: 10px;&quot;&gt;&lt;span&gt;&lt;/span&gt;&lt;p data-sourcepos=&quot;31:4-31:16&quot; style=&quot;margin: 24px 0px; word-break: break-word;&quot;&gt;&lt;strong style=&quot;font-weight: 500;&quot;&gt;Category:&lt;/strong&gt;&lt;/p&gt;&lt;span&gt;&lt;/span&gt;&lt;ul data-sourcepos=&quot;32:5-37:0&quot; style=&quot;margin: 4px 0px; padding-inline-start: 36px;&quot;&gt;&lt;span&gt;&lt;/span&gt;&lt;li data-sourcepos=&quot;32:5-37:0&quot; style=&quot;margin-bottom: 10px;&quot;&gt;&lt;strong style=&quot;font-weight: 500;&quot;&gt;Attributes:&lt;/strong&gt;&lt;span&gt;&lt;/span&gt;&lt;ul data-sourcepos=&quot;33:9-37:0&quot; style=&quot;margin: 4px 0px; padding-inline-start: 36px;&quot;&gt;&lt;span&gt;&lt;/span&gt;&lt;li data-sourcepos=&quot;33:9-33:34&quot; style=&quot;margin-bottom: 10px;&quot;&gt;&lt;span&gt;CategoryID (primary key)&lt;/span&gt;&lt;/li&gt;&lt;span&gt;&lt;/span&gt;&lt;li data-sourcepos=&quot;34:9-34:22&quot; style=&quot;margin-bottom: 10px;&quot;&gt;&lt;span&gt;CategoryName&lt;/span&gt;&lt;/li&gt;&lt;span&gt;&lt;/span&gt;&lt;li data-sourcepos=&quot;35:9-35:19&quot; style=&quot;margin-bottom: 10px;&quot;&gt;&lt;span&gt;CreatedAt&lt;/span&gt;&lt;/li&gt;&lt;span&gt;&lt;/span&gt;&lt;li data-sourcepos=&quot;36:9-37:0&quot; style=&quot;margin-bottom: 10px;&quot;&gt;&lt;span&gt;UpdatedAt&lt;/span&gt;&lt;/li&gt;&lt;span&gt;&lt;/span&gt;&lt;/ul&gt;&lt;span&gt;&lt;/span&gt;&lt;/li&gt;&lt;span&gt;&lt;/span&gt;&lt;/ul&gt;&lt;span&gt;&lt;/span&gt;&lt;/li&gt;&lt;span&gt;&lt;/span&gt;&lt;li data-sourcepos=&quot;38:1-46:0&quot; style=&quot;margin-bottom: 10px;&quot;&gt;&lt;span&gt;&lt;/span&gt;&lt;p data-sourcepos=&quot;38:4-38:12&quot; style=&quot;margin: 24px 0px; word-break: break-word;&quot;&gt;&lt;strong style=&quot;font-weight: 500;&quot;&gt;Cart:&lt;/strong&gt;&lt;/p&gt;&lt;span&gt;&lt;/span&gt;&lt;ul data-sourcepos=&quot;39:5-46:0&quot; style=&quot;margin: 4px 0px; padding-inline-start: 36px;&quot;&gt;&lt;span&gt;&lt;/span&gt;&lt;li data-sourcepos=&quot;39:5-46:0&quot; style=&quot;margin-bottom: 10px;&quot;&gt;&lt;strong style=&quot;font-weight: 500;&quot;&gt;Attributes:&lt;/strong&gt;&lt;span&gt;&lt;/span&gt;&lt;ul data-sourcepos=&quot;40:9-46:0&quot; style=&quot;margin: 4px 0px; padding-inline-start: 36px;&quot;&gt;&lt;span&gt;&lt;/span&gt;&lt;li data-sourcepos=&quot;40:9-40:30&quot; style=&quot;margin-bottom: 10px;&quot;&gt;&lt;span&gt;CartID (primary key)&lt;/span&gt;&lt;/li&gt;&lt;span&gt;&lt;/span&gt;&lt;li data-sourcepos=&quot;41:9-41:30&quot; style=&quot;margin-bottom: 10px;&quot;&gt;&lt;span&gt;UserID (foreign key)&lt;/span&gt;&lt;/li&gt;&lt;span&gt;&lt;/span&gt;&lt;li data-sourcepos=&quot;42:9-42:33&quot; style=&quot;margin-bottom: 10px;&quot;&gt;&lt;span&gt;ProductID (foreign key)&lt;/span&gt;&lt;/li&gt;&lt;span&gt;&lt;/span&gt;&lt;li data-sourcepos=&quot;43:9-43:18&quot; style=&quot;margin-bottom: 10px;&quot;&gt;&lt;span&gt;Quantity&lt;/span&gt;&lt;/li&gt;&lt;span&gt;&lt;/span&gt;&lt;li data-sourcepos=&quot;44:9-44:19&quot; style=&quot;margin-bottom: 10px;&quot;&gt;&lt;span&gt;CreatedAt&lt;/span&gt;&lt;/li&gt;&lt;span&gt;&lt;/span&gt;&lt;li data-sourcepos=&quot;45:9-46:0&quot; style=&quot;margin-bottom: 10px;&quot;&gt;&lt;span&gt;UpdatedAt&lt;/span&gt;&lt;/li&gt;&lt;span&gt;&lt;/span&gt;&lt;/ul&gt;&lt;span&gt;&lt;/span&gt;&lt;/li&gt;&lt;span&gt;&lt;/span&gt;&lt;/ul&gt;&lt;span&gt;&lt;/span&gt;&lt;/li&gt;&lt;span&gt;&lt;/span&gt;&lt;li data-sourcepos=&quot;47:1-49:27&quot; style=&quot;margin-bottom: 10px;&quot;&gt;&lt;span&gt;&lt;/span&gt;&lt;p data-sourcepos=&quot;47:4-47:14&quot; style=&quot;margin: 24px 0px; word-break: break-word;&quot;&gt;&lt;strong style=&quot;font-weight: 500;&quot;&gt;Review:&lt;/strong&gt;&lt;/p&gt;&lt;span&gt;&lt;/span&gt;&lt;ul data-sourcepos=&quot;48:5-49:27&quot; style=&quot;margin: 4px 0px; padding-inline-start: 36px;&quot;&gt;&lt;span&gt;&lt;/span&gt;&lt;li data-sourcepos=&quot;48:5-49:27&quot; style=&quot;margin-bottom: 10px;&quot;&gt;&lt;strong style=&quot;font-weight: 500;&quot;&gt;Attributes:&lt;/strong&gt;&lt;span&gt;&lt;/span&gt;&lt;ul data-sourcepos=&quot;49:9-49:27&quot; style=&quot;margin: 4px 0px; padding-inline-start: 36px;&quot;&gt;&lt;span&gt;&lt;/span&gt;&lt;li data-sourcepos=&quot;49:9-49:27&quot; style=&quot;margin-bottom: 10px;&quot;&gt;&lt;span&gt;ReviewID (primary key)&lt;/span&gt;&lt;/li&gt;&lt;span&gt;&lt;/span&gt;&lt;li data-sourcepos=&quot;50:9-50:33&quot; style=&quot;margin-bottom: 10px;&quot;&gt;&lt;span&gt;ProductID (foreign key)&lt;/span&gt;&lt;/li&gt;&lt;span&gt;&lt;/span&gt;&lt;li data-sourcepos=&quot;51:9-51:30&quot; style=&quot;margin-bottom: 10px;&quot;&gt;&lt;span&gt;UserID (foreign key)&lt;/span&gt;&lt;/li&gt;&lt;span&gt;&lt;/span&gt;&lt;li data-sourcepos=&quot;52:9-52:16&quot; style=&quot;margin-bottom: 10px;&quot;&gt;&lt;span&gt;Rating&lt;/span&gt;&lt;/li&gt;&lt;span&gt;&lt;/span&gt;&lt;li data-sourcepos=&quot;53:9-53:14&quot; style=&quot;margin-bottom: 10px;&quot;&gt;&lt;span&gt;Text&lt;/span&gt;&lt;/li&gt;&lt;span&gt;&lt;/span&gt;&lt;li data-sourcepos=&quot;54:9-54:19&quot; style=&quot;margin-bottom: 10px;&quot;&gt;&lt;span&gt;CreatedAt&lt;/span&gt;&lt;/li&gt;&lt;span&gt;&lt;/span&gt;&lt;li data-sourcepos=&quot;55:9-56:0&quot; style=&quot;margin-bottom: 10px;&quot;&gt;&lt;span&gt;UpdatedAt&lt;/span&gt;&lt;/li&gt;&lt;span&gt;&lt;/span&gt;&lt;/ul&gt;&lt;span&gt;&lt;/span&gt;&lt;/li&gt;&lt;span&gt;&lt;/span&gt;&lt;/ul&gt;&lt;span&gt;&lt;/span&gt;&lt;/li&gt;&lt;span&gt;&lt;/span&gt;&lt;li data-sourcepos=&quot;57:1-65:0&quot; style=&quot;margin-bottom: 10px;&quot;&gt;&lt;span&gt;&lt;/span&gt;&lt;p data-sourcepos=&quot;57:4-57:15&quot; style=&quot;margin: 24px 0px; word-break: break-word;&quot;&gt;&lt;strong style=&quot;font-weight: 500;&quot;&gt;Comment:&lt;/strong&gt;&lt;/p&gt;&lt;span&gt;&lt;/span&gt;&lt;ul data-sourcepos=&quot;58:5-65:0&quot; style=&quot;margin: 4px 0px; padding-inline-start: 36px;&quot;&gt;&lt;span&gt;&lt;/span&gt;&lt;li data-sourcepos=&quot;58:5-65:0&quot; style=&quot;margin-bottom: 10px;&quot;&gt;&lt;strong style=&quot;font-weight: 500;&quot;&gt;Attributes:&lt;/strong&gt;&lt;span&gt;&lt;/span&gt;&lt;ul data-sourcepos=&quot;59:9-65:0&quot; style=&quot;margin: 4px 0px; padding-inline-start: 36px;&quot;&gt;&lt;span&gt;&lt;/span&gt;&lt;li data-sourcepos=&quot;59:9-59:33&quot; style=&quot;margin-bottom: 10px;&quot;&gt;&lt;span&gt;CommentID (primary key)&lt;/span&gt;&lt;/li&gt;&lt;span&gt;&lt;/span&gt;&lt;li data-sourcepos=&quot;60:9-60:32&quot; style=&quot;margin-bottom: 10px;&quot;&gt;&lt;span&gt;ReviewID (foreign key)&lt;/span&gt;&lt;/li&gt;&lt;span&gt;&lt;/span&gt;&lt;li data-sourcepos=&quot;61:9-61:30&quot; style=&quot;margin-bottom: 10px;&quot;&gt;&lt;span&gt;UserID (foreign key)&lt;/span&gt;&lt;/li&gt;&lt;span&gt;&lt;/span&gt;&lt;li data-sourcepos=&quot;62:9-62:14&quot; style=&quot;margin-bottom: 10px;&quot;&gt;&lt;span&gt;Text&lt;/span&gt;&lt;/li&gt;&lt;span&gt;&lt;/span&gt;&lt;li data-sourcepos=&quot;63:9-63:19&quot; style=&quot;margin-bottom: 10px;&quot;&gt;&lt;span&gt;CreatedAt&lt;/span&gt;&lt;/li&gt;&lt;span&gt;&lt;/span&gt;&lt;li data-sourcepos=&quot;64:9-65:0&quot; style=&quot;margin-bottom: 10px;&quot;&gt;&lt;span&gt;UpdatedAt&lt;/span&gt;&lt;/li&gt;&lt;/ul&gt;&lt;/li&gt;&lt;/ul&gt;&lt;/li&gt;&lt;/ol&gt;" style="text;whiteSpace=wrap;html=1;" vertex="1" parent="1">
          <mxGeometry x="910" y="-300" width="290" height="1380" as="geometry" />
        </mxCell>
        <mxCell id="vZ9pLE5V6vLG-cN3C78c-3" value="Table" style="shape=table;startSize=30;container=1;collapsible=1;childLayout=tableLayout;fixedRows=1;rowLines=0;fontStyle=1;align=center;resizeLast=1;html=1;" vertex="1" parent="1">
          <mxGeometry x="530" y="240" width="180" height="150" as="geometry" />
        </mxCell>
        <mxCell id="vZ9pLE5V6vLG-cN3C78c-4" value="" style="shape=tableRow;horizontal=0;startSize=0;swimlaneHead=0;swimlaneBody=0;fillColor=none;collapsible=0;dropTarget=0;points=[[0,0.5],[1,0.5]];portConstraint=eastwest;top=0;left=0;right=0;bottom=1;" vertex="1" parent="vZ9pLE5V6vLG-cN3C78c-3">
          <mxGeometry y="30" width="180" height="30" as="geometry" />
        </mxCell>
        <mxCell id="vZ9pLE5V6vLG-cN3C78c-5" value="PK" style="shape=partialRectangle;connectable=0;fillColor=none;top=0;left=0;bottom=0;right=0;fontStyle=1;overflow=hidden;whiteSpace=wrap;html=1;" vertex="1" parent="vZ9pLE5V6vLG-cN3C78c-4">
          <mxGeometry width="30" height="30" as="geometry">
            <mxRectangle width="30" height="30" as="alternateBounds" />
          </mxGeometry>
        </mxCell>
        <mxCell id="vZ9pLE5V6vLG-cN3C78c-6" value="UniqueID" style="shape=partialRectangle;connectable=0;fillColor=none;top=0;left=0;bottom=0;right=0;align=left;spacingLeft=6;fontStyle=5;overflow=hidden;whiteSpace=wrap;html=1;" vertex="1" parent="vZ9pLE5V6vLG-cN3C78c-4">
          <mxGeometry x="30" width="150" height="30" as="geometry">
            <mxRectangle width="150" height="30" as="alternateBounds" />
          </mxGeometry>
        </mxCell>
        <mxCell id="vZ9pLE5V6vLG-cN3C78c-7" value="" style="shape=tableRow;horizontal=0;startSize=0;swimlaneHead=0;swimlaneBody=0;fillColor=none;collapsible=0;dropTarget=0;points=[[0,0.5],[1,0.5]];portConstraint=eastwest;top=0;left=0;right=0;bottom=0;" vertex="1" parent="vZ9pLE5V6vLG-cN3C78c-3">
          <mxGeometry y="60" width="180" height="30" as="geometry" />
        </mxCell>
        <mxCell id="vZ9pLE5V6vLG-cN3C78c-8" value="" style="shape=partialRectangle;connectable=0;fillColor=none;top=0;left=0;bottom=0;right=0;editable=1;overflow=hidden;whiteSpace=wrap;html=1;" vertex="1" parent="vZ9pLE5V6vLG-cN3C78c-7">
          <mxGeometry width="30" height="30" as="geometry">
            <mxRectangle width="30" height="30" as="alternateBounds" />
          </mxGeometry>
        </mxCell>
        <mxCell id="vZ9pLE5V6vLG-cN3C78c-9" value="Row 1" style="shape=partialRectangle;connectable=0;fillColor=none;top=0;left=0;bottom=0;right=0;align=left;spacingLeft=6;overflow=hidden;whiteSpace=wrap;html=1;" vertex="1" parent="vZ9pLE5V6vLG-cN3C78c-7">
          <mxGeometry x="30" width="150" height="30" as="geometry">
            <mxRectangle width="150" height="30" as="alternateBounds" />
          </mxGeometry>
        </mxCell>
        <mxCell id="vZ9pLE5V6vLG-cN3C78c-10" value="" style="shape=tableRow;horizontal=0;startSize=0;swimlaneHead=0;swimlaneBody=0;fillColor=none;collapsible=0;dropTarget=0;points=[[0,0.5],[1,0.5]];portConstraint=eastwest;top=0;left=0;right=0;bottom=0;" vertex="1" parent="vZ9pLE5V6vLG-cN3C78c-3">
          <mxGeometry y="90" width="180" height="30" as="geometry" />
        </mxCell>
        <mxCell id="vZ9pLE5V6vLG-cN3C78c-11" value="" style="shape=partialRectangle;connectable=0;fillColor=none;top=0;left=0;bottom=0;right=0;editable=1;overflow=hidden;whiteSpace=wrap;html=1;" vertex="1" parent="vZ9pLE5V6vLG-cN3C78c-10">
          <mxGeometry width="30" height="30" as="geometry">
            <mxRectangle width="30" height="30" as="alternateBounds" />
          </mxGeometry>
        </mxCell>
        <mxCell id="vZ9pLE5V6vLG-cN3C78c-12" value="Row 2" style="shape=partialRectangle;connectable=0;fillColor=none;top=0;left=0;bottom=0;right=0;align=left;spacingLeft=6;overflow=hidden;whiteSpace=wrap;html=1;" vertex="1" parent="vZ9pLE5V6vLG-cN3C78c-10">
          <mxGeometry x="30" width="150" height="30" as="geometry">
            <mxRectangle width="150" height="30" as="alternateBounds" />
          </mxGeometry>
        </mxCell>
        <mxCell id="vZ9pLE5V6vLG-cN3C78c-13" value="" style="shape=tableRow;horizontal=0;startSize=0;swimlaneHead=0;swimlaneBody=0;fillColor=none;collapsible=0;dropTarget=0;points=[[0,0.5],[1,0.5]];portConstraint=eastwest;top=0;left=0;right=0;bottom=0;" vertex="1" parent="vZ9pLE5V6vLG-cN3C78c-3">
          <mxGeometry y="120" width="180" height="30" as="geometry" />
        </mxCell>
        <mxCell id="vZ9pLE5V6vLG-cN3C78c-14" value="" style="shape=partialRectangle;connectable=0;fillColor=none;top=0;left=0;bottom=0;right=0;editable=1;overflow=hidden;whiteSpace=wrap;html=1;" vertex="1" parent="vZ9pLE5V6vLG-cN3C78c-13">
          <mxGeometry width="30" height="30" as="geometry">
            <mxRectangle width="30" height="30" as="alternateBounds" />
          </mxGeometry>
        </mxCell>
        <mxCell id="vZ9pLE5V6vLG-cN3C78c-15" value="Row 3" style="shape=partialRectangle;connectable=0;fillColor=none;top=0;left=0;bottom=0;right=0;align=left;spacingLeft=6;overflow=hidden;whiteSpace=wrap;html=1;" vertex="1" parent="vZ9pLE5V6vLG-cN3C78c-13">
          <mxGeometry x="30" width="150" height="30" as="geometry">
            <mxRectangle width="150" height="30" as="alternateBounds" />
          </mxGeometry>
        </mxCell>
        <mxCell id="vZ9pLE5V6vLG-cN3C78c-16" value="Table" style="shape=table;startSize=30;container=1;collapsible=1;childLayout=tableLayout;fixedRows=1;rowLines=0;fontStyle=1;align=center;resizeLast=1;html=1;" vertex="1" parent="1">
          <mxGeometry x="530" y="240" width="180" height="150" as="geometry" />
        </mxCell>
        <mxCell id="vZ9pLE5V6vLG-cN3C78c-17" value="" style="shape=tableRow;horizontal=0;startSize=0;swimlaneHead=0;swimlaneBody=0;fillColor=none;collapsible=0;dropTarget=0;points=[[0,0.5],[1,0.5]];portConstraint=eastwest;top=0;left=0;right=0;bottom=1;" vertex="1" parent="vZ9pLE5V6vLG-cN3C78c-16">
          <mxGeometry y="30" width="180" height="30" as="geometry" />
        </mxCell>
        <mxCell id="vZ9pLE5V6vLG-cN3C78c-18" value="PK" style="shape=partialRectangle;connectable=0;fillColor=none;top=0;left=0;bottom=0;right=0;fontStyle=1;overflow=hidden;whiteSpace=wrap;html=1;" vertex="1" parent="vZ9pLE5V6vLG-cN3C78c-17">
          <mxGeometry width="30" height="30" as="geometry">
            <mxRectangle width="30" height="30" as="alternateBounds" />
          </mxGeometry>
        </mxCell>
        <mxCell id="vZ9pLE5V6vLG-cN3C78c-19" value="UniqueID" style="shape=partialRectangle;connectable=0;fillColor=none;top=0;left=0;bottom=0;right=0;align=left;spacingLeft=6;fontStyle=5;overflow=hidden;whiteSpace=wrap;html=1;" vertex="1" parent="vZ9pLE5V6vLG-cN3C78c-17">
          <mxGeometry x="30" width="150" height="30" as="geometry">
            <mxRectangle width="150" height="30" as="alternateBounds" />
          </mxGeometry>
        </mxCell>
        <mxCell id="vZ9pLE5V6vLG-cN3C78c-20" value="" style="shape=tableRow;horizontal=0;startSize=0;swimlaneHead=0;swimlaneBody=0;fillColor=none;collapsible=0;dropTarget=0;points=[[0,0.5],[1,0.5]];portConstraint=eastwest;top=0;left=0;right=0;bottom=0;" vertex="1" parent="vZ9pLE5V6vLG-cN3C78c-16">
          <mxGeometry y="60" width="180" height="30" as="geometry" />
        </mxCell>
        <mxCell id="vZ9pLE5V6vLG-cN3C78c-21" value="" style="shape=partialRectangle;connectable=0;fillColor=none;top=0;left=0;bottom=0;right=0;editable=1;overflow=hidden;whiteSpace=wrap;html=1;" vertex="1" parent="vZ9pLE5V6vLG-cN3C78c-20">
          <mxGeometry width="30" height="30" as="geometry">
            <mxRectangle width="30" height="30" as="alternateBounds" />
          </mxGeometry>
        </mxCell>
        <mxCell id="vZ9pLE5V6vLG-cN3C78c-22" value="Row 1" style="shape=partialRectangle;connectable=0;fillColor=none;top=0;left=0;bottom=0;right=0;align=left;spacingLeft=6;overflow=hidden;whiteSpace=wrap;html=1;" vertex="1" parent="vZ9pLE5V6vLG-cN3C78c-20">
          <mxGeometry x="30" width="150" height="30" as="geometry">
            <mxRectangle width="150" height="30" as="alternateBounds" />
          </mxGeometry>
        </mxCell>
        <mxCell id="vZ9pLE5V6vLG-cN3C78c-23" value="" style="shape=tableRow;horizontal=0;startSize=0;swimlaneHead=0;swimlaneBody=0;fillColor=none;collapsible=0;dropTarget=0;points=[[0,0.5],[1,0.5]];portConstraint=eastwest;top=0;left=0;right=0;bottom=0;" vertex="1" parent="vZ9pLE5V6vLG-cN3C78c-16">
          <mxGeometry y="90" width="180" height="30" as="geometry" />
        </mxCell>
        <mxCell id="vZ9pLE5V6vLG-cN3C78c-24" value="" style="shape=partialRectangle;connectable=0;fillColor=none;top=0;left=0;bottom=0;right=0;editable=1;overflow=hidden;whiteSpace=wrap;html=1;" vertex="1" parent="vZ9pLE5V6vLG-cN3C78c-23">
          <mxGeometry width="30" height="30" as="geometry">
            <mxRectangle width="30" height="30" as="alternateBounds" />
          </mxGeometry>
        </mxCell>
        <mxCell id="vZ9pLE5V6vLG-cN3C78c-25" value="Row 2" style="shape=partialRectangle;connectable=0;fillColor=none;top=0;left=0;bottom=0;right=0;align=left;spacingLeft=6;overflow=hidden;whiteSpace=wrap;html=1;" vertex="1" parent="vZ9pLE5V6vLG-cN3C78c-23">
          <mxGeometry x="30" width="150" height="30" as="geometry">
            <mxRectangle width="150" height="30" as="alternateBounds" />
          </mxGeometry>
        </mxCell>
        <mxCell id="vZ9pLE5V6vLG-cN3C78c-26" value="" style="shape=tableRow;horizontal=0;startSize=0;swimlaneHead=0;swimlaneBody=0;fillColor=none;collapsible=0;dropTarget=0;points=[[0,0.5],[1,0.5]];portConstraint=eastwest;top=0;left=0;right=0;bottom=0;" vertex="1" parent="vZ9pLE5V6vLG-cN3C78c-16">
          <mxGeometry y="120" width="180" height="30" as="geometry" />
        </mxCell>
        <mxCell id="vZ9pLE5V6vLG-cN3C78c-27" value="" style="shape=partialRectangle;connectable=0;fillColor=none;top=0;left=0;bottom=0;right=0;editable=1;overflow=hidden;whiteSpace=wrap;html=1;" vertex="1" parent="vZ9pLE5V6vLG-cN3C78c-26">
          <mxGeometry width="30" height="30" as="geometry">
            <mxRectangle width="30" height="30" as="alternateBounds" />
          </mxGeometry>
        </mxCell>
        <mxCell id="vZ9pLE5V6vLG-cN3C78c-28" value="Row 3" style="shape=partialRectangle;connectable=0;fillColor=none;top=0;left=0;bottom=0;right=0;align=left;spacingLeft=6;overflow=hidden;whiteSpace=wrap;html=1;" vertex="1" parent="vZ9pLE5V6vLG-cN3C78c-26">
          <mxGeometry x="30" width="150" height="30" as="geometry">
            <mxRectangle width="150" height="30" as="alternateBounds" />
          </mxGeometry>
        </mxCell>
        <mxCell id="vZ9pLE5V6vLG-cN3C78c-29" value="Table" style="shape=table;startSize=30;container=1;collapsible=1;childLayout=tableLayout;fixedRows=1;rowLines=0;fontStyle=1;align=center;resizeLast=1;html=1;" vertex="1" parent="1">
          <mxGeometry x="530" y="240" width="180" height="150" as="geometry" />
        </mxCell>
        <mxCell id="vZ9pLE5V6vLG-cN3C78c-30" value="" style="shape=tableRow;horizontal=0;startSize=0;swimlaneHead=0;swimlaneBody=0;fillColor=none;collapsible=0;dropTarget=0;points=[[0,0.5],[1,0.5]];portConstraint=eastwest;top=0;left=0;right=0;bottom=1;" vertex="1" parent="vZ9pLE5V6vLG-cN3C78c-29">
          <mxGeometry y="30" width="180" height="30" as="geometry" />
        </mxCell>
        <mxCell id="vZ9pLE5V6vLG-cN3C78c-31" value="PK" style="shape=partialRectangle;connectable=0;fillColor=none;top=0;left=0;bottom=0;right=0;fontStyle=1;overflow=hidden;whiteSpace=wrap;html=1;" vertex="1" parent="vZ9pLE5V6vLG-cN3C78c-30">
          <mxGeometry width="30" height="30" as="geometry">
            <mxRectangle width="30" height="30" as="alternateBounds" />
          </mxGeometry>
        </mxCell>
        <mxCell id="vZ9pLE5V6vLG-cN3C78c-32" value="UniqueID" style="shape=partialRectangle;connectable=0;fillColor=none;top=0;left=0;bottom=0;right=0;align=left;spacingLeft=6;fontStyle=5;overflow=hidden;whiteSpace=wrap;html=1;" vertex="1" parent="vZ9pLE5V6vLG-cN3C78c-30">
          <mxGeometry x="30" width="150" height="30" as="geometry">
            <mxRectangle width="150" height="30" as="alternateBounds" />
          </mxGeometry>
        </mxCell>
        <mxCell id="vZ9pLE5V6vLG-cN3C78c-33" value="" style="shape=tableRow;horizontal=0;startSize=0;swimlaneHead=0;swimlaneBody=0;fillColor=none;collapsible=0;dropTarget=0;points=[[0,0.5],[1,0.5]];portConstraint=eastwest;top=0;left=0;right=0;bottom=0;" vertex="1" parent="vZ9pLE5V6vLG-cN3C78c-29">
          <mxGeometry y="60" width="180" height="30" as="geometry" />
        </mxCell>
        <mxCell id="vZ9pLE5V6vLG-cN3C78c-34" value="" style="shape=partialRectangle;connectable=0;fillColor=none;top=0;left=0;bottom=0;right=0;editable=1;overflow=hidden;whiteSpace=wrap;html=1;" vertex="1" parent="vZ9pLE5V6vLG-cN3C78c-33">
          <mxGeometry width="30" height="30" as="geometry">
            <mxRectangle width="30" height="30" as="alternateBounds" />
          </mxGeometry>
        </mxCell>
        <mxCell id="vZ9pLE5V6vLG-cN3C78c-35" value="Row 1" style="shape=partialRectangle;connectable=0;fillColor=none;top=0;left=0;bottom=0;right=0;align=left;spacingLeft=6;overflow=hidden;whiteSpace=wrap;html=1;" vertex="1" parent="vZ9pLE5V6vLG-cN3C78c-33">
          <mxGeometry x="30" width="150" height="30" as="geometry">
            <mxRectangle width="150" height="30" as="alternateBounds" />
          </mxGeometry>
        </mxCell>
        <mxCell id="vZ9pLE5V6vLG-cN3C78c-36" value="" style="shape=tableRow;horizontal=0;startSize=0;swimlaneHead=0;swimlaneBody=0;fillColor=none;collapsible=0;dropTarget=0;points=[[0,0.5],[1,0.5]];portConstraint=eastwest;top=0;left=0;right=0;bottom=0;" vertex="1" parent="vZ9pLE5V6vLG-cN3C78c-29">
          <mxGeometry y="90" width="180" height="30" as="geometry" />
        </mxCell>
        <mxCell id="vZ9pLE5V6vLG-cN3C78c-37" value="" style="shape=partialRectangle;connectable=0;fillColor=none;top=0;left=0;bottom=0;right=0;editable=1;overflow=hidden;whiteSpace=wrap;html=1;" vertex="1" parent="vZ9pLE5V6vLG-cN3C78c-36">
          <mxGeometry width="30" height="30" as="geometry">
            <mxRectangle width="30" height="30" as="alternateBounds" />
          </mxGeometry>
        </mxCell>
        <mxCell id="vZ9pLE5V6vLG-cN3C78c-38" value="Row 2" style="shape=partialRectangle;connectable=0;fillColor=none;top=0;left=0;bottom=0;right=0;align=left;spacingLeft=6;overflow=hidden;whiteSpace=wrap;html=1;" vertex="1" parent="vZ9pLE5V6vLG-cN3C78c-36">
          <mxGeometry x="30" width="150" height="30" as="geometry">
            <mxRectangle width="150" height="30" as="alternateBounds" />
          </mxGeometry>
        </mxCell>
        <mxCell id="vZ9pLE5V6vLG-cN3C78c-39" value="" style="shape=tableRow;horizontal=0;startSize=0;swimlaneHead=0;swimlaneBody=0;fillColor=none;collapsible=0;dropTarget=0;points=[[0,0.5],[1,0.5]];portConstraint=eastwest;top=0;left=0;right=0;bottom=0;" vertex="1" parent="vZ9pLE5V6vLG-cN3C78c-29">
          <mxGeometry y="120" width="180" height="30" as="geometry" />
        </mxCell>
        <mxCell id="vZ9pLE5V6vLG-cN3C78c-40" value="" style="shape=partialRectangle;connectable=0;fillColor=none;top=0;left=0;bottom=0;right=0;editable=1;overflow=hidden;whiteSpace=wrap;html=1;" vertex="1" parent="vZ9pLE5V6vLG-cN3C78c-39">
          <mxGeometry width="30" height="30" as="geometry">
            <mxRectangle width="30" height="30" as="alternateBounds" />
          </mxGeometry>
        </mxCell>
        <mxCell id="vZ9pLE5V6vLG-cN3C78c-41" value="Row 3" style="shape=partialRectangle;connectable=0;fillColor=none;top=0;left=0;bottom=0;right=0;align=left;spacingLeft=6;overflow=hidden;whiteSpace=wrap;html=1;" vertex="1" parent="vZ9pLE5V6vLG-cN3C78c-39">
          <mxGeometry x="30" width="150" height="30" as="geometry">
            <mxRectangle width="150" height="30" as="alternateBounds" />
          </mxGeometry>
        </mxCell>
        <mxCell id="vZ9pLE5V6vLG-cN3C78c-42" value="Table" style="shape=table;startSize=30;container=1;collapsible=1;childLayout=tableLayout;fixedRows=1;rowLines=0;fontStyle=1;align=center;resizeLast=1;html=1;" vertex="1" parent="1">
          <mxGeometry x="530" y="240" width="180" height="150" as="geometry" />
        </mxCell>
        <mxCell id="vZ9pLE5V6vLG-cN3C78c-43" value="" style="shape=tableRow;horizontal=0;startSize=0;swimlaneHead=0;swimlaneBody=0;fillColor=none;collapsible=0;dropTarget=0;points=[[0,0.5],[1,0.5]];portConstraint=eastwest;top=0;left=0;right=0;bottom=1;" vertex="1" parent="vZ9pLE5V6vLG-cN3C78c-42">
          <mxGeometry y="30" width="180" height="30" as="geometry" />
        </mxCell>
        <mxCell id="vZ9pLE5V6vLG-cN3C78c-44" value="PK" style="shape=partialRectangle;connectable=0;fillColor=none;top=0;left=0;bottom=0;right=0;fontStyle=1;overflow=hidden;whiteSpace=wrap;html=1;" vertex="1" parent="vZ9pLE5V6vLG-cN3C78c-43">
          <mxGeometry width="30" height="30" as="geometry">
            <mxRectangle width="30" height="30" as="alternateBounds" />
          </mxGeometry>
        </mxCell>
        <mxCell id="vZ9pLE5V6vLG-cN3C78c-45" value="UniqueID" style="shape=partialRectangle;connectable=0;fillColor=none;top=0;left=0;bottom=0;right=0;align=left;spacingLeft=6;fontStyle=5;overflow=hidden;whiteSpace=wrap;html=1;" vertex="1" parent="vZ9pLE5V6vLG-cN3C78c-43">
          <mxGeometry x="30" width="150" height="30" as="geometry">
            <mxRectangle width="150" height="30" as="alternateBounds" />
          </mxGeometry>
        </mxCell>
        <mxCell id="vZ9pLE5V6vLG-cN3C78c-46" value="" style="shape=tableRow;horizontal=0;startSize=0;swimlaneHead=0;swimlaneBody=0;fillColor=none;collapsible=0;dropTarget=0;points=[[0,0.5],[1,0.5]];portConstraint=eastwest;top=0;left=0;right=0;bottom=0;" vertex="1" parent="vZ9pLE5V6vLG-cN3C78c-42">
          <mxGeometry y="60" width="180" height="30" as="geometry" />
        </mxCell>
        <mxCell id="vZ9pLE5V6vLG-cN3C78c-47" value="" style="shape=partialRectangle;connectable=0;fillColor=none;top=0;left=0;bottom=0;right=0;editable=1;overflow=hidden;whiteSpace=wrap;html=1;" vertex="1" parent="vZ9pLE5V6vLG-cN3C78c-46">
          <mxGeometry width="30" height="30" as="geometry">
            <mxRectangle width="30" height="30" as="alternateBounds" />
          </mxGeometry>
        </mxCell>
        <mxCell id="vZ9pLE5V6vLG-cN3C78c-48" value="Row 1" style="shape=partialRectangle;connectable=0;fillColor=none;top=0;left=0;bottom=0;right=0;align=left;spacingLeft=6;overflow=hidden;whiteSpace=wrap;html=1;" vertex="1" parent="vZ9pLE5V6vLG-cN3C78c-46">
          <mxGeometry x="30" width="150" height="30" as="geometry">
            <mxRectangle width="150" height="30" as="alternateBounds" />
          </mxGeometry>
        </mxCell>
        <mxCell id="vZ9pLE5V6vLG-cN3C78c-49" value="" style="shape=tableRow;horizontal=0;startSize=0;swimlaneHead=0;swimlaneBody=0;fillColor=none;collapsible=0;dropTarget=0;points=[[0,0.5],[1,0.5]];portConstraint=eastwest;top=0;left=0;right=0;bottom=0;" vertex="1" parent="vZ9pLE5V6vLG-cN3C78c-42">
          <mxGeometry y="90" width="180" height="30" as="geometry" />
        </mxCell>
        <mxCell id="vZ9pLE5V6vLG-cN3C78c-50" value="" style="shape=partialRectangle;connectable=0;fillColor=none;top=0;left=0;bottom=0;right=0;editable=1;overflow=hidden;whiteSpace=wrap;html=1;" vertex="1" parent="vZ9pLE5V6vLG-cN3C78c-49">
          <mxGeometry width="30" height="30" as="geometry">
            <mxRectangle width="30" height="30" as="alternateBounds" />
          </mxGeometry>
        </mxCell>
        <mxCell id="vZ9pLE5V6vLG-cN3C78c-51" value="Row 2" style="shape=partialRectangle;connectable=0;fillColor=none;top=0;left=0;bottom=0;right=0;align=left;spacingLeft=6;overflow=hidden;whiteSpace=wrap;html=1;" vertex="1" parent="vZ9pLE5V6vLG-cN3C78c-49">
          <mxGeometry x="30" width="150" height="30" as="geometry">
            <mxRectangle width="150" height="30" as="alternateBounds" />
          </mxGeometry>
        </mxCell>
        <mxCell id="vZ9pLE5V6vLG-cN3C78c-52" value="" style="shape=tableRow;horizontal=0;startSize=0;swimlaneHead=0;swimlaneBody=0;fillColor=none;collapsible=0;dropTarget=0;points=[[0,0.5],[1,0.5]];portConstraint=eastwest;top=0;left=0;right=0;bottom=0;" vertex="1" parent="vZ9pLE5V6vLG-cN3C78c-42">
          <mxGeometry y="120" width="180" height="30" as="geometry" />
        </mxCell>
        <mxCell id="vZ9pLE5V6vLG-cN3C78c-53" value="" style="shape=partialRectangle;connectable=0;fillColor=none;top=0;left=0;bottom=0;right=0;editable=1;overflow=hidden;whiteSpace=wrap;html=1;" vertex="1" parent="vZ9pLE5V6vLG-cN3C78c-52">
          <mxGeometry width="30" height="30" as="geometry">
            <mxRectangle width="30" height="30" as="alternateBounds" />
          </mxGeometry>
        </mxCell>
        <mxCell id="vZ9pLE5V6vLG-cN3C78c-54" value="Row 3" style="shape=partialRectangle;connectable=0;fillColor=none;top=0;left=0;bottom=0;right=0;align=left;spacingLeft=6;overflow=hidden;whiteSpace=wrap;html=1;" vertex="1" parent="vZ9pLE5V6vLG-cN3C78c-52">
          <mxGeometry x="30" width="150" height="30" as="geometry">
            <mxRectangle width="150" height="30" as="alternateBounds" />
          </mxGeometry>
        </mxCell>
        <mxCell id="vZ9pLE5V6vLG-cN3C78c-55" value="Products" style="shape=table;startSize=30;container=1;collapsible=1;childLayout=tableLayout;fixedRows=1;rowLines=0;fontStyle=1;align=center;resizeLast=1;html=1;" vertex="1" parent="1">
          <mxGeometry x="300" y="140" width="180" height="150" as="geometry" />
        </mxCell>
        <mxCell id="vZ9pLE5V6vLG-cN3C78c-56" value="" style="shape=tableRow;horizontal=0;startSize=0;swimlaneHead=0;swimlaneBody=0;fillColor=none;collapsible=0;dropTarget=0;points=[[0,0.5],[1,0.5]];portConstraint=eastwest;top=0;left=0;right=0;bottom=1;" vertex="1" parent="vZ9pLE5V6vLG-cN3C78c-55">
          <mxGeometry y="30" width="180" height="30" as="geometry" />
        </mxCell>
        <mxCell id="vZ9pLE5V6vLG-cN3C78c-57" value="PK" style="shape=partialRectangle;connectable=0;fillColor=none;top=0;left=0;bottom=0;right=0;fontStyle=1;overflow=hidden;whiteSpace=wrap;html=1;" vertex="1" parent="vZ9pLE5V6vLG-cN3C78c-56">
          <mxGeometry width="30" height="30" as="geometry">
            <mxRectangle width="30" height="30" as="alternateBounds" />
          </mxGeometry>
        </mxCell>
        <mxCell id="vZ9pLE5V6vLG-cN3C78c-58" value="productID" style="shape=partialRectangle;connectable=0;fillColor=none;top=0;left=0;bottom=0;right=0;align=left;spacingLeft=6;fontStyle=5;overflow=hidden;whiteSpace=wrap;html=1;" vertex="1" parent="vZ9pLE5V6vLG-cN3C78c-56">
          <mxGeometry x="30" width="150" height="30" as="geometry">
            <mxRectangle width="150" height="30" as="alternateBounds" />
          </mxGeometry>
        </mxCell>
        <mxCell id="vZ9pLE5V6vLG-cN3C78c-59" value="" style="shape=tableRow;horizontal=0;startSize=0;swimlaneHead=0;swimlaneBody=0;fillColor=none;collapsible=0;dropTarget=0;points=[[0,0.5],[1,0.5]];portConstraint=eastwest;top=0;left=0;right=0;bottom=0;" vertex="1" parent="vZ9pLE5V6vLG-cN3C78c-55">
          <mxGeometry y="60" width="180" height="30" as="geometry" />
        </mxCell>
        <mxCell id="vZ9pLE5V6vLG-cN3C78c-60" value="" style="shape=partialRectangle;connectable=0;fillColor=none;top=0;left=0;bottom=0;right=0;editable=1;overflow=hidden;whiteSpace=wrap;html=1;" vertex="1" parent="vZ9pLE5V6vLG-cN3C78c-59">
          <mxGeometry width="30" height="30" as="geometry">
            <mxRectangle width="30" height="30" as="alternateBounds" />
          </mxGeometry>
        </mxCell>
        <mxCell id="vZ9pLE5V6vLG-cN3C78c-61" value="Row 1" style="shape=partialRectangle;connectable=0;fillColor=none;top=0;left=0;bottom=0;right=0;align=left;spacingLeft=6;overflow=hidden;whiteSpace=wrap;html=1;" vertex="1" parent="vZ9pLE5V6vLG-cN3C78c-59">
          <mxGeometry x="30" width="150" height="30" as="geometry">
            <mxRectangle width="150" height="30" as="alternateBounds" />
          </mxGeometry>
        </mxCell>
        <mxCell id="vZ9pLE5V6vLG-cN3C78c-62" value="" style="shape=tableRow;horizontal=0;startSize=0;swimlaneHead=0;swimlaneBody=0;fillColor=none;collapsible=0;dropTarget=0;points=[[0,0.5],[1,0.5]];portConstraint=eastwest;top=0;left=0;right=0;bottom=0;" vertex="1" parent="vZ9pLE5V6vLG-cN3C78c-55">
          <mxGeometry y="90" width="180" height="30" as="geometry" />
        </mxCell>
        <mxCell id="vZ9pLE5V6vLG-cN3C78c-63" value="" style="shape=partialRectangle;connectable=0;fillColor=none;top=0;left=0;bottom=0;right=0;editable=1;overflow=hidden;whiteSpace=wrap;html=1;" vertex="1" parent="vZ9pLE5V6vLG-cN3C78c-62">
          <mxGeometry width="30" height="30" as="geometry">
            <mxRectangle width="30" height="30" as="alternateBounds" />
          </mxGeometry>
        </mxCell>
        <mxCell id="vZ9pLE5V6vLG-cN3C78c-64" value="Row 2" style="shape=partialRectangle;connectable=0;fillColor=none;top=0;left=0;bottom=0;right=0;align=left;spacingLeft=6;overflow=hidden;whiteSpace=wrap;html=1;" vertex="1" parent="vZ9pLE5V6vLG-cN3C78c-62">
          <mxGeometry x="30" width="150" height="30" as="geometry">
            <mxRectangle width="150" height="30" as="alternateBounds" />
          </mxGeometry>
        </mxCell>
        <mxCell id="vZ9pLE5V6vLG-cN3C78c-65" value="" style="shape=tableRow;horizontal=0;startSize=0;swimlaneHead=0;swimlaneBody=0;fillColor=none;collapsible=0;dropTarget=0;points=[[0,0.5],[1,0.5]];portConstraint=eastwest;top=0;left=0;right=0;bottom=0;" vertex="1" parent="vZ9pLE5V6vLG-cN3C78c-55">
          <mxGeometry y="120" width="180" height="30" as="geometry" />
        </mxCell>
        <mxCell id="vZ9pLE5V6vLG-cN3C78c-66" value="" style="shape=partialRectangle;connectable=0;fillColor=none;top=0;left=0;bottom=0;right=0;editable=1;overflow=hidden;whiteSpace=wrap;html=1;" vertex="1" parent="vZ9pLE5V6vLG-cN3C78c-65">
          <mxGeometry width="30" height="30" as="geometry">
            <mxRectangle width="30" height="30" as="alternateBounds" />
          </mxGeometry>
        </mxCell>
        <mxCell id="vZ9pLE5V6vLG-cN3C78c-67" value="Row 3" style="shape=partialRectangle;connectable=0;fillColor=none;top=0;left=0;bottom=0;right=0;align=left;spacingLeft=6;overflow=hidden;whiteSpace=wrap;html=1;" vertex="1" parent="vZ9pLE5V6vLG-cN3C78c-65">
          <mxGeometry x="30" width="150" height="30" as="geometry">
            <mxRectangle width="150" height="30" as="alternateBounds" />
          </mxGeometry>
        </mxCell>
        <mxCell id="vZ9pLE5V6vLG-cN3C78c-68" value="User" style="shape=table;startSize=30;container=1;collapsible=1;childLayout=tableLayout;fixedRows=1;rowLines=0;fontStyle=1;align=center;resizeLast=1;html=1;" vertex="1" parent="1">
          <mxGeometry x="50" y="110" width="180" height="240" as="geometry" />
        </mxCell>
        <mxCell id="vZ9pLE5V6vLG-cN3C78c-69" value="" style="shape=tableRow;horizontal=0;startSize=0;swimlaneHead=0;swimlaneBody=0;fillColor=none;collapsible=0;dropTarget=0;points=[[0,0.5],[1,0.5]];portConstraint=eastwest;top=0;left=0;right=0;bottom=1;" vertex="1" parent="vZ9pLE5V6vLG-cN3C78c-68">
          <mxGeometry y="30" width="180" height="30" as="geometry" />
        </mxCell>
        <mxCell id="vZ9pLE5V6vLG-cN3C78c-70" value="PK" style="shape=partialRectangle;connectable=0;fillColor=none;top=0;left=0;bottom=0;right=0;fontStyle=1;overflow=hidden;whiteSpace=wrap;html=1;" vertex="1" parent="vZ9pLE5V6vLG-cN3C78c-69">
          <mxGeometry width="30" height="30" as="geometry">
            <mxRectangle width="30" height="30" as="alternateBounds" />
          </mxGeometry>
        </mxCell>
        <mxCell id="vZ9pLE5V6vLG-cN3C78c-71" value="UserID" style="shape=partialRectangle;connectable=0;fillColor=none;top=0;left=0;bottom=0;right=0;align=left;spacingLeft=6;fontStyle=5;overflow=hidden;whiteSpace=wrap;html=1;" vertex="1" parent="vZ9pLE5V6vLG-cN3C78c-69">
          <mxGeometry x="30" width="150" height="30" as="geometry">
            <mxRectangle width="150" height="30" as="alternateBounds" />
          </mxGeometry>
        </mxCell>
        <mxCell id="vZ9pLE5V6vLG-cN3C78c-72" value="" style="shape=tableRow;horizontal=0;startSize=0;swimlaneHead=0;swimlaneBody=0;fillColor=none;collapsible=0;dropTarget=0;points=[[0,0.5],[1,0.5]];portConstraint=eastwest;top=0;left=0;right=0;bottom=0;" vertex="1" parent="vZ9pLE5V6vLG-cN3C78c-68">
          <mxGeometry y="60" width="180" height="30" as="geometry" />
        </mxCell>
        <mxCell id="vZ9pLE5V6vLG-cN3C78c-73" value="" style="shape=partialRectangle;connectable=0;fillColor=none;top=0;left=0;bottom=0;right=0;editable=1;overflow=hidden;whiteSpace=wrap;html=1;" vertex="1" parent="vZ9pLE5V6vLG-cN3C78c-72">
          <mxGeometry width="30" height="30" as="geometry">
            <mxRectangle width="30" height="30" as="alternateBounds" />
          </mxGeometry>
        </mxCell>
        <mxCell id="vZ9pLE5V6vLG-cN3C78c-74" value="username" style="shape=partialRectangle;connectable=0;fillColor=none;top=0;left=0;bottom=0;right=0;align=left;spacingLeft=6;overflow=hidden;whiteSpace=wrap;html=1;" vertex="1" parent="vZ9pLE5V6vLG-cN3C78c-72">
          <mxGeometry x="30" width="150" height="30" as="geometry">
            <mxRectangle width="150" height="30" as="alternateBounds" />
          </mxGeometry>
        </mxCell>
        <mxCell id="vZ9pLE5V6vLG-cN3C78c-75" value="" style="shape=tableRow;horizontal=0;startSize=0;swimlaneHead=0;swimlaneBody=0;fillColor=none;collapsible=0;dropTarget=0;points=[[0,0.5],[1,0.5]];portConstraint=eastwest;top=0;left=0;right=0;bottom=0;" vertex="1" parent="vZ9pLE5V6vLG-cN3C78c-68">
          <mxGeometry y="90" width="180" height="30" as="geometry" />
        </mxCell>
        <mxCell id="vZ9pLE5V6vLG-cN3C78c-76" value="" style="shape=partialRectangle;connectable=0;fillColor=none;top=0;left=0;bottom=0;right=0;editable=1;overflow=hidden;whiteSpace=wrap;html=1;" vertex="1" parent="vZ9pLE5V6vLG-cN3C78c-75">
          <mxGeometry width="30" height="30" as="geometry">
            <mxRectangle width="30" height="30" as="alternateBounds" />
          </mxGeometry>
        </mxCell>
        <mxCell id="vZ9pLE5V6vLG-cN3C78c-77" value="email" style="shape=partialRectangle;connectable=0;fillColor=none;top=0;left=0;bottom=0;right=0;align=left;spacingLeft=6;overflow=hidden;whiteSpace=wrap;html=1;" vertex="1" parent="vZ9pLE5V6vLG-cN3C78c-75">
          <mxGeometry x="30" width="150" height="30" as="geometry">
            <mxRectangle width="150" height="30" as="alternateBounds" />
          </mxGeometry>
        </mxCell>
        <mxCell id="vZ9pLE5V6vLG-cN3C78c-78" value="" style="shape=tableRow;horizontal=0;startSize=0;swimlaneHead=0;swimlaneBody=0;fillColor=none;collapsible=0;dropTarget=0;points=[[0,0.5],[1,0.5]];portConstraint=eastwest;top=0;left=0;right=0;bottom=0;" vertex="1" parent="vZ9pLE5V6vLG-cN3C78c-68">
          <mxGeometry y="120" width="180" height="30" as="geometry" />
        </mxCell>
        <mxCell id="vZ9pLE5V6vLG-cN3C78c-79" value="" style="shape=partialRectangle;connectable=0;fillColor=none;top=0;left=0;bottom=0;right=0;editable=1;overflow=hidden;whiteSpace=wrap;html=1;" vertex="1" parent="vZ9pLE5V6vLG-cN3C78c-78">
          <mxGeometry width="30" height="30" as="geometry">
            <mxRectangle width="30" height="30" as="alternateBounds" />
          </mxGeometry>
        </mxCell>
        <mxCell id="vZ9pLE5V6vLG-cN3C78c-80" value="password" style="shape=partialRectangle;connectable=0;fillColor=none;top=0;left=0;bottom=0;right=0;align=left;spacingLeft=6;overflow=hidden;whiteSpace=wrap;html=1;" vertex="1" parent="vZ9pLE5V6vLG-cN3C78c-78">
          <mxGeometry x="30" width="150" height="30" as="geometry">
            <mxRectangle width="150" height="30" as="alternateBounds" />
          </mxGeometry>
        </mxCell>
        <mxCell id="vZ9pLE5V6vLG-cN3C78c-81" value="" style="shape=tableRow;horizontal=0;startSize=0;swimlaneHead=0;swimlaneBody=0;fillColor=none;collapsible=0;dropTarget=0;points=[[0,0.5],[1,0.5]];portConstraint=eastwest;top=0;left=0;right=0;bottom=0;" vertex="1" parent="vZ9pLE5V6vLG-cN3C78c-68">
          <mxGeometry y="150" width="180" height="30" as="geometry" />
        </mxCell>
        <mxCell id="vZ9pLE5V6vLG-cN3C78c-82" value="" style="shape=partialRectangle;connectable=0;fillColor=none;top=0;left=0;bottom=0;right=0;editable=1;overflow=hidden;whiteSpace=wrap;html=1;" vertex="1" parent="vZ9pLE5V6vLG-cN3C78c-81">
          <mxGeometry width="30" height="30" as="geometry">
            <mxRectangle width="30" height="30" as="alternateBounds" />
          </mxGeometry>
        </mxCell>
        <mxCell id="vZ9pLE5V6vLG-cN3C78c-83" value="userType(merchant/customer)" style="shape=partialRectangle;connectable=0;fillColor=none;top=0;left=0;bottom=0;right=0;align=left;spacingLeft=6;overflow=hidden;whiteSpace=wrap;html=1;" vertex="1" parent="vZ9pLE5V6vLG-cN3C78c-81">
          <mxGeometry x="30" width="150" height="30" as="geometry">
            <mxRectangle width="150" height="30" as="alternateBounds" />
          </mxGeometry>
        </mxCell>
        <mxCell id="vZ9pLE5V6vLG-cN3C78c-84" value="" style="shape=tableRow;horizontal=0;startSize=0;swimlaneHead=0;swimlaneBody=0;fillColor=none;collapsible=0;dropTarget=0;points=[[0,0.5],[1,0.5]];portConstraint=eastwest;top=0;left=0;right=0;bottom=0;" vertex="1" parent="vZ9pLE5V6vLG-cN3C78c-68">
          <mxGeometry y="180" width="180" height="30" as="geometry" />
        </mxCell>
        <mxCell id="vZ9pLE5V6vLG-cN3C78c-85" value="" style="shape=partialRectangle;connectable=0;fillColor=none;top=0;left=0;bottom=0;right=0;editable=1;overflow=hidden;whiteSpace=wrap;html=1;" vertex="1" parent="vZ9pLE5V6vLG-cN3C78c-84">
          <mxGeometry width="30" height="30" as="geometry">
            <mxRectangle width="30" height="30" as="alternateBounds" />
          </mxGeometry>
        </mxCell>
        <mxCell id="vZ9pLE5V6vLG-cN3C78c-86" value="createdAt" style="shape=partialRectangle;connectable=0;fillColor=none;top=0;left=0;bottom=0;right=0;align=left;spacingLeft=6;overflow=hidden;whiteSpace=wrap;html=1;" vertex="1" parent="vZ9pLE5V6vLG-cN3C78c-84">
          <mxGeometry x="30" width="150" height="30" as="geometry">
            <mxRectangle width="150" height="30" as="alternateBounds" />
          </mxGeometry>
        </mxCell>
        <mxCell id="vZ9pLE5V6vLG-cN3C78c-87" value="" style="shape=tableRow;horizontal=0;startSize=0;swimlaneHead=0;swimlaneBody=0;fillColor=none;collapsible=0;dropTarget=0;points=[[0,0.5],[1,0.5]];portConstraint=eastwest;top=0;left=0;right=0;bottom=0;" vertex="1" parent="vZ9pLE5V6vLG-cN3C78c-68">
          <mxGeometry y="210" width="180" height="30" as="geometry" />
        </mxCell>
        <mxCell id="vZ9pLE5V6vLG-cN3C78c-88" value="" style="shape=partialRectangle;connectable=0;fillColor=none;top=0;left=0;bottom=0;right=0;editable=1;overflow=hidden;whiteSpace=wrap;html=1;" vertex="1" parent="vZ9pLE5V6vLG-cN3C78c-87">
          <mxGeometry width="30" height="30" as="geometry">
            <mxRectangle width="30" height="30" as="alternateBounds" />
          </mxGeometry>
        </mxCell>
        <mxCell id="vZ9pLE5V6vLG-cN3C78c-89" value="updatedAt" style="shape=partialRectangle;connectable=0;fillColor=none;top=0;left=0;bottom=0;right=0;align=left;spacingLeft=6;overflow=hidden;whiteSpace=wrap;html=1;" vertex="1" parent="vZ9pLE5V6vLG-cN3C78c-87">
          <mxGeometry x="30" width="150" height="30" as="geometry">
            <mxRectangle width="150" height="30" as="alternateBounds" />
          </mxGeometry>
        </mxCell>
      </root>
    </mxGraphModel>
  </diagram>
</mxfile>
